<?xml version="1.0" standalone="no"?>
<!DOCTYPE svg PUBLIC "-//W3C//DTD SVG 20010904//EN"
 "http://www.w3.org/TR/2001/REC-SVG-20010904/DTD/svg10.dtd">
<svg version="1.0" xmlns="http://www.w3.org/2000/svg"
 width="500.000000pt" height="500.000000pt" viewBox="0 0 500.000000 500.000000"
 preserveAspectRatio="xMidYMid meet">

<g transform="translate(0.000000,500.000000) scale(0.100000,-0.100000)"
fill="#000000" stroke="none">
<path d="M2329 4643 c0 -5 0 -32 1 -61 1 -41 -2 -53 -16 -59 -26 -10 -46 25
-42 75 2 33 0 42 -13 42 -13 0 -15 -8 -8 -57 10 -70 40 -93 81 -60 21 15 30
127 11 127 -7 0 -13 -3 -14 -7z"/>
<path d="M2433 4633 c-4 -11 4 -25 25 -43 18 -15 32 -34 32 -43 0 -23 -36 -22
-50 1 -10 15 -10 15 -8 -3 4 -24 42 -32 64 -15 23 20 16 48 -17 66 -23 11 -30
21 -26 35 6 23 -11 26 -20 2z"/>
<path d="M2485 4640 c3 -5 8 -10 11 -10 2 0 4 5 4 10 0 6 -5 10 -11 10 -5 0
-7 -4 -4 -10z"/>
<path d="M2589 4594 c2 -40 -1 -59 -10 -65 -10 -6 -4 -8 16 -8 17 0 25 3 20 5
-7 3 -9 27 -5 64 5 50 3 60 -10 60 -12 0 -14 -11 -11 -56z"/>
<path d="M2709 4581 c9 -33 19 -63 23 -66 4 -4 16 13 28 37 12 24 14 35 5 24
-8 -11 -15 -24 -15 -30 0 -6 -4 -6 -11 1 -6 6 -12 29 -12 52 -2 30 -6 41 -18
41 -15 0 -15 -5 0 -59z"/>
<path d="M2783 4615 c0 -11 4 -12 14 -4 7 6 13 13 13 15 0 2 -6 4 -13 4 -8 0
-14 -7 -14 -15z"/>
<path d="M2095 4553 c7 -32 11 -62 8 -67 -3 -5 0 -7 6 -5 15 5 15 1 6 72 -5
36 -12 57 -20 57 -11 0 -11 -11 0 -57z"/>
<path d="M2873 4563 c-6 -27 -12 -54 -14 -62 -2 -8 4 -16 13 -18 12 -3 15 1
12 14 -3 10 2 39 10 66 11 37 11 47 1 47 -7 0 -17 -21 -22 -47z"/>
<path d="M1970 4583 c-30 -11 -50 -37 -50 -65 0 -55 69 -90 101 -51 13 15 12
15 -8 4 -30 -15 -60 0 -69 36 -9 34 7 58 39 58 16 -1 23 4 20 12 -5 14 -9 15
-33 6z"/>
<path d="M2977 4583 c-4 -3 -7 -11 -7 -17 0 -6 5 -5 12 2 6 6 9 14 7 17 -3 3
-9 2 -12 -2z"/>
<path d="M3006 4563 c3 -10 -2 -38 -11 -62 -18 -53 -18 -51 0 -51 8 0 14 3 13
8 -6 18 26 102 38 102 8 0 14 -5 14 -11 0 -5 5 -7 12 -3 8 5 2 12 -17 20 -41
18 -54 17 -49 -3z"/>
<path d="M3142 4494 c6 -28 6 -49 -1 -63 -14 -24 -14 -31 -1 -31 5 0 15 11 22
25 7 13 29 36 48 50 18 14 30 25 24 25 -5 0 -20 -9 -34 -20 -35 -28 -43 -25
-38 14 3 26 0 36 -13 39 -14 4 -15 -1 -7 -39z"/>
<path d="M1825 4493 c8 -20 13 -38 11 -40 -2 -3 -23 7 -46 22 -24 15 -49 24
-58 20 -12 -4 -13 -8 -4 -14 7 -4 20 -30 30 -58 14 -40 21 -50 33 -42 8 5 9 9
2 9 -6 0 -16 12 -21 28 -5 15 -13 35 -17 45 -6 14 6 10 48 -17 31 -20 58 -36
61 -36 2 0 -5 27 -17 60 -12 33 -25 60 -30 60 -4 0 0 -16 8 -37z"/>
<path d="M2160 4503 c-14 -7 -18 -13 -10 -13 17 0 47 17 40 23 -3 2 -16 -2
-30 -10z"/>
<path d="M1628 4444 c-3 -3 7 -28 22 -57 16 -28 26 -55 23 -60 -3 -5 4 -4 16
2 18 10 19 14 8 25 -7 7 -21 32 -31 55 -18 40 -26 47 -38 35z"/>
<path d="M3371 4374 c-12 -15 -21 -35 -21 -45 0 -24 34 -59 58 -59 12 0 10 4
-8 13 -35 17 -38 56 -6 86 26 25 66 22 66 -5 0 -9 5 -12 12 -8 16 10 -28 44
-57 44 -13 0 -33 -11 -44 -26z"/>
<path d="M1434 4328 c-25 -18 -57 -47 -38 -33 9 6 64 -72 64 -91 0 -14 3 -14
15 -4 14 12 14 15 0 30 -17 19 -20 40 -5 40 6 0 10 5 10 11 0 8 -5 7 -15 -1
-13 -11 -18 -10 -29 6 -17 23 -2 48 25 41 12 -3 16 0 12 9 -7 18 -5 18 -39 -8z"/>
<path d="M2928 4333 c7 -3 16 -2 19 1 4 3 -2 6 -13 5 -11 0 -14 -3 -6 -6z"/>
<path d="M2423 4295 c-19 -8 -33 -21 -33 -31 0 -16 1 -16 14 1 8 11 29 25 47
31 19 7 27 13 19 13 -8 0 -30 -6 -47 -14z"/>
<path d="M2491 4307 c2 -1 13 -9 24 -17 19 -14 19 -14 6 3 -7 9 -18 17 -24 17
-6 0 -8 -1 -6 -3z"/>
<path d="M3520 4265 c-24 -18 -49 -31 -55 -28 -5 3 -4 0 2 -7 10 -11 16 -11
30 2 16 15 20 15 38 2 16 -12 18 -18 7 -34 -8 -13 -8 -21 -1 -26 6 -3 12 -4
13 -3 4 5 36 114 36 123 0 14 -28 2 -70 -29z m45 -4 c-3 -12 -13 -21 -21 -21
-18 0 -18 9 3 32 20 22 27 17 18 -11z"/>
<path d="M2744 4274 c-18 -15 -18 -15 3 -5 34 17 88 13 106 -7 10 -10 17 -31
17 -47 0 -27 1 -28 14 -9 8 10 11 21 7 24 -3 3 -14 17 -24 33 -15 23 -24 27
-60 27 -24 0 -52 -7 -63 -16z"/>
<path d="M2151 4254 c-22 -28 -27 -78 -12 -103 6 -10 8 -1 4 26 -6 46 8 80 40
93 16 6 18 9 5 9 -9 1 -26 -11 -37 -25z"/>
<path d="M2216 4261 c-4 -5 4 -7 15 -4 44 12 65 -58 33 -107 l-16 -25 20 23
c30 33 42 27 42 -22 0 -30 6 -48 18 -57 14 -11 15 -11 5 1 -18 19 -16 95 1
109 8 7 27 16 43 21 28 8 28 8 3 9 -14 1 -36 -6 -48 -15 -13 -9 -22 -11 -22
-4 0 6 -4 8 -10 5 -5 -3 -10 2 -10 12 0 42 -56 83 -74 54z"/>
<path d="M2441 4260 c0 -14 28 -72 29 -59 0 4 -7 22 -15 40 -8 19 -14 27 -14
19z"/>
<path d="M2564 4260 c-25 -10 -54 -48 -54 -70 0 -8 7 -2 16 15 19 37 16 34 61
50 21 8 29 14 18 14 -11 0 -30 -4 -41 -9z"/>
<path d="M1511 4237 c-13 -21 -12 -21 5 -5 10 10 16 20 13 22 -3 3 -11 -5 -18
-17z"/>
<path d="M1312 4238 c-8 -8 -5 -16 11 -28 18 -15 19 -20 8 -34 -18 -22 -37
-20 -54 4 -12 17 -16 18 -26 6 -9 -11 -8 -15 3 -19 9 -3 28 -24 44 -46 21 -29
32 -37 40 -29 8 8 5 16 -11 28 -21 18 -22 18 -3 39 25 27 32 26 49 -5 12 -23
15 -24 26 -10 8 9 9 16 4 16 -6 0 -26 20 -45 45 -25 32 -38 41 -46 33z"/>
<path d="M2716 4233 c-6 -14 -5 -15 5 -6 7 7 10 15 7 18 -3 3 -9 -2 -12 -12z"/>
<path d="M2201 4224 c0 -11 3 -14 6 -6 3 7 2 16 -1 19 -3 4 -6 -2 -5 -13z"/>
<path d="M2690 4225 c0 -15 -3 -16 -12 -7 -7 7 -19 12 -27 12 -13 0 -14 -2 -2
-9 12 -8 12 -12 -1 -25 -16 -15 -35 -93 -25 -102 2 -3 8 15 11 40 8 53 25 70
66 64 29 -4 30 -4 13 16 -10 12 -19 23 -20 25 -2 2 -3 -4 -3 -14z"/>
<path d="M2038 4213 c-8 -10 -22 -31 -32 -46 -10 -16 -23 -26 -30 -24 -6 3
-20 -1 -30 -9 -17 -12 -14 -12 19 -7 34 5 38 4 33 -13 -4 -14 0 -20 13 -20 14
0 15 3 7 13 -8 10 -7 24 2 53 14 44 25 55 55 63 19 4 19 5 -1 6 -11 0 -28 -7
-36 -16z"/>
<path d="M2811 4214 c0 -11 3 -14 6 -6 3 7 2 16 -1 19 -3 4 -6 -2 -5 -13z"/>
<path d="M2952 4203 c25 -30 26 -47 1 -66 -13 -10 -23 -27 -23 -38 0 -16 -4
-19 -22 -13 -19 6 -18 3 7 -19 l30 -25 -28 -23 c-23 -17 -28 -28 -25 -50 4
-23 1 -29 -13 -29 -32 0 -51 13 -66 44 -11 25 -13 26 -9 6 6 -30 -18 -60 -51
-60 -25 0 -29 9 -13 28 7 9 7 9 -2 2 -19 -16 -46 -12 -58 10 -15 27 -3 66 27
90 14 11 21 20 16 20 -5 0 -18 -9 -28 -20 -10 -11 -20 -18 -23 -15 -3 3 -16
-11 -29 -30 -28 -41 -57 -45 -96 -15 -25 20 -25 20 -20 0 3 -12 17 -22 38 -26
34 -6 75 2 75 15 0 4 7 16 16 27 15 18 15 18 9 -3 -8 -30 9 -58 46 -77 42 -21
58 -20 84 4 20 18 23 19 35 5 7 -8 27 -15 45 -15 24 0 34 -6 43 -25 9 -20 18
-25 44 -24 28 2 29 2 8 6 -48 9 -68 42 -27 44 17 1 15 3 -8 8 -23 5 -31 12
-33 32 -4 31 17 50 66 60 30 5 32 7 10 8 -23 1 -28 7 -34 37 -5 26 -2 40 9 51
18 19 32 11 58 -31 11 -18 19 -24 19 -15 0 9 -12 28 -26 42 -24 24 -24 26 -7
35 22 12 58 0 72 -25 6 -10 11 -13 11 -6 0 20 -51 53 -74 47 -17 -4 -25 1 -34
20 -6 14 -17 26 -23 26 -8 0 -7 -6 3 -17z"/>
<path d="M3650 4170 c-43 -46 -44 -49 -25 -61 11 -6 17 -8 12 -4 -4 5 0 17 9
27 14 15 20 16 33 5 14 -11 14 -10 2 6 -12 15 -11 20 4 37 17 19 19 19 36 4
10 -9 16 -21 12 -27 -4 -6 -1 -7 6 -2 9 5 5 15 -15 36 -15 16 -28 29 -28 29
-1 -1 -21 -23 -46 -50z"/>
<path d="M2925 4170 c-12 -4 -27 -15 -35 -25 -10 -12 -3 -11 26 6 55 32 58 40
9 19z"/>
<path d="M1822 4158 c-7 -7 -12 -16 -12 -22 0 -5 6 -1 14 9 12 16 19 18 42 10
16 -6 34 -22 41 -35 8 -15 13 -19 13 -9 0 21 -42 59 -66 59 -11 0 -25 -5 -32
-12z"/>
<path d="M3188 4142 c39 -33 41 -64 7 -97 -13 -14 -23 -25 -21 -25 8 0 66 32
66 36 0 3 -4 3 -9 -1 -6 -3 -8 8 -4 28 4 29 0 39 -23 61 -16 14 -33 26 -39 26
-5 0 5 -13 23 -28z"/>
<path d="M2030 4154 c0 -7 71 -36 76 -31 2 2 -14 11 -36 20 -22 8 -40 13 -40
11z"/>
<path d="M2500 4149 c0 -5 5 -7 10 -4 6 3 10 8 10 11 0 2 -4 4 -10 4 -5 0 -10
-5 -10 -11z"/>
<path d="M2388 4143 c12 -2 30 -2 40 0 9 3 -1 5 -23 4 -22 0 -30 -2 -17 -4z"/>
<path d="M2670 4143 c8 -3 24 -10 35 -15 20 -9 20 -9 1 6 -11 9 -27 16 -35 15
-14 0 -14 -1 -1 -6z"/>
<path d="M2472 4125 c-11 -12 -10 -15 3 -15 8 0 15 7 15 15 0 18 -2 18 -18 0z"/>
<path d="M2794 4128 c3 -10 -2 -22 -12 -27 -16 -10 -16 -10 1 -11 9 0 17 5 17
10 0 6 8 10 18 11 13 0 14 2 2 6 -8 3 -19 11 -23 17 -6 7 -7 4 -3 -6z"/>
<path d="M1150 4095 c-28 -29 -32 -37 -21 -48 8 -6 11 -7 8 -2 -3 6 -1 17 4
25 7 12 18 6 53 -31 28 -29 47 -42 50 -34 2 7 -13 30 -35 51 -44 43 -48 54
-18 54 11 0 17 5 14 10 -10 16 -19 12 -55 -25z"/>
<path d="M1820 4111 c0 -6 4 -13 10 -16 6 -3 7 1 4 9 -7 18 -14 21 -14 7z"/>
<path d="M3799 4109 c0 -7 -19 -30 -42 -49 l-42 -35 31 -27 c17 -16 35 -28 39
-28 4 0 -4 10 -19 21 -26 20 -26 22 -10 40 16 18 18 18 36 3 11 -10 18 -12 18
-6 0 7 -4 12 -10 12 -15 0 -12 26 5 40 12 10 18 10 30 0 9 -7 14 -19 11 -27
-6 -14 10 -18 18 -5 3 5 -10 24 -29 42 -22 22 -35 29 -36 19z"/>
<path d="M1765 4080 c5 -32 45 -80 68 -80 5 0 -5 12 -22 26 -17 14 -35 40 -41
57 l-10 32 5 -35z"/>
<path d="M2496 4093 c-6 -14 -5 -15 5 -6 7 7 10 15 7 18 -3 3 -9 -2 -12 -12z"/>
<path d="M3081 4094 c0 -11 3 -14 6 -6 3 7 2 16 -1 19 -3 4 -6 -2 -5 -13z"/>
<path d="M2160 4091 c0 -10 19 -25 25 -20 1 2 -3 10 -11 17 -8 7 -14 8 -14 3z"/>
<path d="M2836 4089 c4 -7 44 0 44 7 0 2 -11 3 -24 2 -14 -1 -23 -5 -20 -9z"/>
<path d="M3146 4068 l-17 -33 20 24 c18 20 27 41 18 41 -1 0 -11 -15 -21 -32z"/>
<path d="M2035 4065 c-14 -13 -25 -33 -25 -44 0 -11 -8 -25 -17 -30 -16 -9
-15 -10 6 -8 33 3 71 -47 53 -71 -7 -9 -16 -27 -22 -39 -15 -35 -62 -31 -94 8
-14 17 -26 26 -26 21 0 -23 50 -62 79 -62 25 0 36 8 58 43 16 23 31 43 34 45
3 1 -9 18 -27 36 -19 19 -34 43 -34 53 0 20 33 56 60 66 12 4 11 6 -3 6 -10 1
-29 -10 -42 -24z"/>
<path d="M2396 4058 c-9 -12 -16 -35 -16 -50 0 -25 22 -58 40 -58 5 0 17 -2
27 -6 10 -3 2 3 -17 13 -41 21 -51 60 -25 99 19 30 12 32 -9 2z"/>
<path d="M2089 4033 l-24 -28 28 24 c25 23 32 31 24 31 -2 0 -14 -12 -28 -27z"/>
<path d="M2339 4044 c-10 -12 -24 -15 -53 -11 -26 4 -35 2 -25 -4 7 -5 26 -9
40 -9 27 0 68 24 58 34 -3 4 -12 -1 -20 -10z"/>
<path d="M2610 4056 c0 -2 8 -10 18 -17 15 -13 16 -12 3 4 -13 16 -21 21 -21
13z"/>
<path d="M1702 4015 c-13 -14 -33 -25 -47 -25 -14 0 -25 -4 -25 -9 0 -5 14 -8
32 -7 28 1 32 -3 40 -32 7 -27 5 -41 -12 -70 -19 -34 -19 -35 -1 -14 11 12 21
27 23 34 3 8 13 8 34 1 23 -7 30 -16 32 -41 3 -29 1 -31 -35 -35 -26 -3 -23
-4 10 -2 39 2 47 -1 47 -15 0 -22 -16 -35 -52 -44 -25 -6 -27 -8 -15 -26 12
-20 12 -20 21 -1 4 11 17 22 28 24 11 3 22 15 25 27 5 19 10 20 44 15 22 -4
45 -2 56 5 16 10 15 10 -5 5 -29 -8 -78 3 -97 22 -22 21 -18 63 8 91 12 14 15
21 7 17 -8 -5 -21 -17 -28 -27 -10 -14 -18 -15 -40 -7 -35 13 -42 26 -42 76 0
30 5 45 18 52 9 6 12 11 6 11 -6 0 -20 -11 -32 -25z"/>
<path d="M2452 4028 c-10 -13 -29 -67 -20 -58 7 7 37 70 33 70 -1 0 -7 -6 -13
-12z"/>
<path d="M3085 4029 c-4 -6 -5 -12 -2 -15 2 -3 7 2 10 11 7 17 1 20 -8 4z"/>
<path d="M2151 3984 c-1 -36 32 -84 58 -84 23 0 79 28 87 43 5 8 3 8 -7 0 -11
-11 -49 -19 -49 -10 -1 16 -29 77 -30 64 0 -10 7 -31 15 -48 14 -25 14 -30 1
-35 -21 -8 -55 13 -60 39 -3 12 -7 31 -9 42 -3 12 -5 8 -6 -11z"/>
<path d="M3319 3993 c-13 -17 -13 -17 6 -3 11 8 22 16 24 17 2 2 0 3 -6 3 -6
0 -17 -8 -24 -17z"/>
<path d="M3368 4003 c6 -2 10 -8 7 -12 -2 -5 6 -6 19 -4 17 4 28 -2 40 -18 9
-13 16 -19 16 -14 0 18 -15 34 -43 44 -28 11 -65 15 -39 4z"/>
<path d="M3261 3993 c-1 -8 -15 -13 -37 -13 -19 0 -33 -4 -30 -8 8 -13 -24
-54 -38 -49 -8 3 -10 -7 -8 -33 3 -29 -1 -43 -17 -59 -12 -12 -17 -21 -13 -21
17 0 42 37 48 71 8 42 50 89 80 89 13 0 33 -13 48 -31 14 -17 26 -26 26 -21 0
5 -11 21 -24 35 -13 14 -26 32 -29 39 -4 10 -6 10 -6 1z"/>
<path d="M1580 3980 c-8 -5 -12 -11 -10 -14 3 -2 14 2 24 10 22 15 10 19 -14
4z"/>
<path d="M1867 3969 c7 -7 15 -10 18 -7 3 3 -2 9 -12 12 -14 6 -15 5 -6 -5z"/>
<path d="M2499 3953 c-13 -16 -12 -17 4 -4 9 7 17 15 17 17 0 8 -8 3 -21 -13z"/>
<path d="M3110 3966 c0 -2 8 -10 18 -17 15 -13 16 -12 3 4 -13 16 -21 21 -21
13z"/>
<path d="M3356 3955 c-3 -9 -6 -26 -5 -38 1 -14 4 -9 9 13 9 37 7 52 -4 25z"/>
<path d="M1748 3953 c6 -2 18 -2 25 0 6 3 1 5 -13 5 -14 0 -19 -2 -12 -5z"/>
<path d="M1478 3929 c-10 -5 -18 -15 -18 -20 0 -6 7 -3 16 5 22 23 64 20 92
-6 24 -22 24 -23 14 -2 -18 34 -67 45 -104 23z"/>
<path d="M1966 3925 c6 -15 43 -40 49 -33 1 2 -11 13 -26 26 -21 17 -27 19
-23 7z"/>
<path d="M1846 3905 c-3 -9 -6 -26 -5 -38 1 -14 4 -9 9 13 9 37 7 52 -4 25z"/>
<path d="M3245 3908 c11 -6 27 -16 35 -22 9 -6 5 -1 -8 12 -13 12 -28 22 -35
22 -7 0 -3 -6 8 -12z"/>
<path d="M3001 3885 c-1 -32 22 -75 41 -75 6 0 2 10 -9 23 -12 12 -23 36 -26
52 l-4 30 -2 -30z"/>
<path d="M3398 3884 c-38 -20 -36 -29 2 -9 40 21 76 19 100 -5 11 -11 20 -16
20 -11 0 16 -43 41 -70 41 -14 -1 -37 -8 -52 -16z"/>
<path d="M1460 3881 c0 -5 7 -12 16 -15 14 -5 15 -4 4 9 -14 17 -20 19 -20 6z"/>
<path d="M3307 3828 c8 -9 12 -22 7 -29 -5 -8 -3 -10 5 -5 7 5 10 15 6 24 -3
8 0 19 6 23 7 4 1 6 -14 6 -23 -2 -24 -3 -10 -19z"/>
<path d="M1440 3833 c0 -19 48 -55 67 -50 15 4 14 5 -4 6 -12 0 -31 13 -42 27
-12 15 -21 22 -21 17z"/>
<path d="M3073 3820 c-11 -16 -10 -18 2 -14 8 4 15 12 15 20 0 19 -3 18 -17
-6z"/>
<path d="M3228 3833 c7 -3 16 -2 19 1 4 3 -2 6 -13 5 -11 0 -14 -3 -6 -6z"/>
<path d="M3176 3815 c-28 -28 -29 -54 -4 -91 22 -33 61 -54 75 -40 4 3 -3 6
-14 6 -20 0 -73 58 -73 80 0 6 11 22 25 35 13 14 20 25 15 25 -5 0 -15 -7 -24
-15z"/>
<path d="M3478 3823 c6 -2 9 -10 5 -16 -5 -9 -3 -9 8 -1 8 6 21 14 29 17 8 3
-1 5 -20 5 -19 0 -29 -2 -22 -5z"/>
<path d="M3570 3821 c38 -7 64 -42 54 -76 -6 -20 -6 -20 9 0 8 11 12 22 8 25
-3 3 -12 17 -18 33 -11 23 -18 27 -50 26 l-38 -2 35 -6z"/>
<path d="M1622 3794 c-7 -8 -8 -14 -3 -14 10 0 25 19 20 25 -2 1 -10 -3 -17
-11z"/>
<path d="M1548 3783 c7 -3 16 -2 19 1 4 3 -2 6 -13 5 -11 0 -14 -3 -6 -6z"/>
<path d="M3209 3760 l-24 -21 35 17 c43 21 47 24 28 24 -9 0 -26 -9 -39 -20z"/>
<path d="M3566 3750 c8 -43 14 -51 14 -19 0 13 -5 31 -10 39 -7 11 -8 5 -4
-20z"/>
<path d="M1406 3761 c-4 -5 4 -7 15 -4 15 4 27 0 35 -12 12 -16 14 -16 14 -3
0 24 -52 39 -64 19z"/>
<path d="M3395 3757 c4 -8 2 -18 -4 -21 -5 -4 -13 -27 -17 -51 -3 -25 -10 -45
-14 -45 -23 0 -44 16 -56 44 -10 24 -13 26 -14 10 0 -26 43 -67 66 -62 11 2
21 20 29 52 7 26 18 52 24 56 9 5 8 10 -4 20 -13 11 -15 10 -10 -3z"/>
<path d="M3701 3747 c9 -8 22 -29 29 -46 11 -26 10 -35 -4 -58 l-17 -28 20 24
c12 13 21 28 21 35 -1 22 -35 80 -50 84 -12 4 -12 3 1 -11z"/>
<path d="M1560 3742 c0 -4 -13 -23 -28 -42 l-29 -33 -21 21 -21 21 -17 -27
c-17 -27 -17 -27 3 -9 19 16 20 16 35 0 8 -10 14 -23 11 -29 -2 -7 8 -9 27 -6
41 6 60 -13 60 -59 0 -51 -30 -83 -71 -77 -26 4 -28 3 -16 -10 13 -12 19 -12
45 2 38 20 52 44 52 89 0 35 -24 67 -52 67 -28 0 -28 13 2 47 27 31 38 53 25
53 -3 0 -5 -4 -5 -8z"/>
<path d="M3460 3746 c0 -2 7 -7 16 -10 8 -3 12 -2 9 4 -6 10 -25 14 -25 6z"/>
<path d="M1256 3706 c-28 -37 -32 -61 -16 -86 8 -11 9 -8 4 12 -3 16 -3 35 0
44 5 14 8 14 24 -3 9 -10 13 -13 9 -7 -5 7 -7 23 -5 36 2 18 10 24 34 26 25 2
37 -3 58 -28 29 -35 32 -34 15 4 -22 48 -87 49 -123 2z"/>
<path d="M1591 3700 c0 -15 -4 -30 -8 -35 -5 -6 -4 -7 1 -3 5 4 18 -4 28 -18
11 -13 30 -24 42 -24 46 0 107 44 106 77 -1 4 -7 -4 -15 -18 -8 -15 -30 -31
-54 -39 -39 -12 -43 -12 -66 10 -13 12 -26 34 -28 49 l-4 26 -2 -25z"/>
<path d="M1640 3713 c0 -6 8 -17 18 -24 16 -13 16 -13 2 6 -8 11 -16 22 -17
24 -2 2 -3 0 -3 -6z"/>
<path d="M3674 3710 c-12 -5 -25 -14 -29 -20 -6 -10 50 13 64 26 7 7 -13 3
-35 -6z"/>
<path d="M3401 3696 c2 -1 20 -8 39 -14 32 -11 33 -10 16 3 -16 12 -69 23 -55
11z"/>
<path d="M3639 3624 c19 -8 40 -22 48 -32 13 -15 13 -15 3 6 -6 13 -22 27 -36
32 -40 16 -52 11 -15 -6z"/>
<path d="M3444 3612 c-26 -14 -31 -23 -32 -56 -1 -21 3 -45 9 -52 17 -21 54
-17 75 9 l19 22 -22 -18 c-25 -21 -51 -19 -66 4 -15 23 9 76 42 94 14 8 22 14
16 14 -5 0 -24 -8 -41 -17z"/>
<path d="M1259 3595 c-53 -29 -58 -107 -6 -104 22 2 22 2 1 6 -52 10 -23 84
39 102 20 6 24 9 12 10 -11 0 -32 -6 -46 -14z"/>
<path d="M1408 3578 c7 -27 17 -29 17 -4 0 13 -5 23 -11 23 -6 0 -9 -9 -6 -19z"/>
<path d="M3756 3583 c20 -3 35 -12 42 -26 7 -15 11 -17 11 -6 1 24 -20 39 -53
37 l-31 -1 31 -4z"/>
<path d="M3740 3533 c-3 -23 -2 -39 3 -34 5 5 7 24 5 42 -3 33 -4 33 -8 -8z"/>
<path d="M1493 3553 c9 -2 23 -2 30 0 6 3 -1 5 -18 5 -16 0 -22 -2 -12 -5z"/>
<path d="M3643 3544 c17 -21 17 -21 -30 -20 -27 0 -52 5 -56 11 -5 6 -6 2 -3
-8 8 -26 -32 -58 -64 -52 -21 5 -22 4 -7 -5 9 -6 25 -9 35 -6 20 7 38 4 35 -6
-1 -3 4 -9 13 -12 12 -5 13 -2 3 16 -10 18 -8 24 12 40 27 23 62 17 99 -15 23
-20 24 -20 7 -1 -9 11 -17 25 -17 31 0 5 -10 18 -22 29 l-23 19 18 -21z"/>
<path d="M3810 3515 c-7 -9 -11 -17 -9 -20 3 -2 10 5 17 15 14 24 10 26 -8 5z"/>
<path d="M1358 3486 c-9 -13 -30 -27 -45 -31 -30 -7 -83 -57 -83 -77 1 -7 7
-1 15 13 15 28 67 55 85 44 6 -3 9 -3 8 2 -2 5 7 19 20 33 12 13 22 27 22 32
0 12 -3 10 -22 -16z"/>
<path d="M1420 3509 c0 -4 7 -22 15 -40 8 -19 14 -27 14 -19 0 14 -28 72 -29
59z"/>
<path d="M3882 3498 c9 -7 19 -32 23 -54 6 -37 3 -44 -21 -63 -31 -25 -19 -29
15 -5 20 15 22 22 16 63 -7 48 -20 71 -38 71 -6 0 -4 -6 5 -12z"/>
<path d="M1190 3481 c0 -5 11 -16 25 -25 14 -9 25 -15 25 -13 0 2 -11 13 -25
25 -14 12 -25 18 -25 13z"/>
<path d="M1133 3458 c-12 -6 -24 -17 -28 -26 -5 -13 -3 -13 11 -2 13 12 17 11
25 -1 5 -8 9 -19 9 -25 0 -6 9 -19 21 -30 18 -16 17 -13 -5 26 l-25 45 22 12
c27 15 1 16 -30 1z"/>
<path d="M1481 3426 c-20 -24 -80 -30 -104 -9 -11 10 -17 12 -13 6 4 -8 2 -13
-7 -13 -8 0 -21 -7 -28 -17 -13 -15 -12 -15 9 -2 21 13 25 12 38 -5 8 -11 14
-14 14 -8 0 7 6 12 13 12 30 0 86 22 91 35 7 19 2 19 -13 1z"/>
<path d="M1611 3424 c0 -11 3 -14 6 -6 3 7 2 16 -1 19 -3 4 -6 -2 -5 -13z"/>
<path d="M3541 3425 c-1 -22 16 -45 33 -45 5 0 2 8 -6 18 -9 9 -18 24 -21 32
-4 11 -6 9 -6 -5z"/>
<path d="M3739 3422 c-14 -6 -15 -9 -3 -20 11 -10 14 -10 14 2 0 8 6 17 13 19
6 3 8 5 2 6 -5 0 -17 -3 -26 -7z"/>
<path d="M3820 3414 c-33 -13 -33 -14 -5 -8 17 3 34 10 40 15 11 11 8 11 -35
-7z"/>
<path d="M3599 3377 c-22 -17 -33 -71 -19 -96 13 -25 42 -27 61 -4 13 15 12
15 -8 2 -20 -12 -25 -11 -39 3 -20 20 -13 59 16 88 22 22 14 27 -11 7z"/>
<path d="M3461 3354 c0 -11 3 -14 6 -6 3 7 2 16 -1 19 -3 4 -6 -2 -5 -13z"/>
<path d="M3720 3363 c13 -6 13 -63 1 -63 -5 0 -16 -13 -24 -29 -12 -24 -12
-31 -2 -35 9 -3 15 4 17 21 3 27 47 61 80 62 22 1 58 -45 59 -78 1 -25 1 -25
9 4 4 17 11 39 15 50 l8 20 -16 -20 c-15 -19 -16 -19 -22 -2 -4 10 -20 24 -35
32 -24 13 -30 13 -40 0 -18 -22 -28 -18 -32 12 -2 14 -9 28 -16 29 -7 1 -8 0
-2 -3z"/>
<path d="M1098 3353 c7 -3 16 -2 19 1 4 3 -2 6 -13 5 -11 0 -14 -3 -6 -6z"/>
<path d="M1380 3348 c0 -6 -10 -22 -22 -35 -18 -19 -19 -23 -5 -23 22 0 49
-43 41 -64 -6 -16 -8 -16 -27 1 -19 18 -20 18 -6 -4 17 -28 25 -29 39 -2 9 16
8 26 -4 43 -9 15 -13 37 -10 60 2 20 2 36 -1 36 -3 0 -5 -5 -5 -12z"/>
<path d="M2965 3346 c-91 -28 -170 -108 -197 -198 l-11 -38 -348 0 c-221 0
-350 4 -354 10 -3 6 -11 10 -16 10 -6 0 -4 -7 5 -15 12 -13 67 -15 370 -15
332 0 356 1 356 18 0 21 39 107 45 100 2 -2 -7 -31 -20 -64 l-24 -59 -370 -3
c-246 -1 -371 1 -371 8 0 5 -7 10 -15 10 -11 0 -15 -12 -15 -50 0 -38 4 -50
15 -50 8 0 15 5 15 10 0 6 20 10 45 10 l45 0 0 -180 0 -180 -24 0 c-35 0 -72
-16 -79 -33 -23 -62 109 -217 185 -217 47 0 48 6 48 317 l0 293 125 0 125 0 0
-443 0 -443 68 -47 67 -47 3 490 2 491 66 -3 65 -3 24 -59 c14 -33 22 -62 20
-64 -6 -7 -45 79 -45 101 0 14 -9 17 -55 17 l-55 0 -2 -500 -3 -500 -87 58
-88 57 0 443 0 442 -105 0 -105 0 0 -279 c0 -156 -4 -291 -10 -305 -20 -54
-88 -46 -157 17 -128 117 -140 206 -30 232 l27 7 0 164 0 164 -24 0 c-14 0
-27 -4 -30 -9 -8 -12 -91 -23 -206 -26 -52 -2 -129 -5 -170 -8 -89 -6 -123 8
-139 54 -20 59 12 102 94 123 11 3 2 3 -19 1 -56 -6 -89 -41 -89 -95 0 -32 7
-48 27 -68 25 -26 31 -27 114 -24 48 2 132 4 187 6 119 4 203 14 211 27 3 5
12 9 20 9 12 0 14 -27 14 -155 l0 -154 -40 -11 c-22 -6 -44 -19 -50 -30 -41
-76 46 -209 175 -265 33 -15 57 -24 54 -20 -4 3 6 19 22 35 17 16 29 39 29 54
0 24 4 26 40 26 22 0 40 3 40 8 0 4 -18 6 -40 4 -33 -3 -40 -1 -40 13 0 14 7
16 40 13 22 -2 40 0 40 4 0 5 -18 8 -39 8 l-40 0 0 235 -1 235 95 0 95 0 0
-439 0 -440 94 -65 c52 -36 97 -66 100 -66 3 0 6 227 6 505 l0 505 35 0 c41 0
47 -17 8 -23 l-28 -4 28 -2 c30 -1 39 -31 10 -31 -17 -1 -17 -1 0 -11 26 -15
21 -37 -10 -42 l-28 -4 28 -2 c28 -1 38 -24 15 -35 -10 -5 -10 -7 0 -12 22
-10 13 -33 -15 -37 l-28 -4 28 -2 c31 -1 35 -18 10 -37 -17 -13 -17 -13 0 -14
28 0 20 -28 -10 -33 l-28 -4 28 -2 c33 -1 37 -28 5 -41 l-23 -9 23 0 c32 -1
28 -29 -5 -34 l-28 -4 28 -2 c20 -1 27 -6 27 -20 0 -14 -8 -21 -27 -24 l-28
-4 28 -2 c33 -1 37 -28 5 -34 l-23 -4 23 -2 c34 -2 30 -39 -5 -44 l-28 -4 28
-2 c30 -1 39 -31 10 -31 -17 -1 -17 -1 0 -11 26 -15 21 -37 -10 -42 l-28 -4
28 -2 c28 -1 38 -24 15 -35 -10 -5 -10 -7 0 -12 22 -10 13 -33 -15 -37 l-28
-4 28 -2 c31 -1 37 -24 10 -40 -17 -10 -17 -10 0 -11 28 0 20 -28 -10 -33
l-28 -4 28 -2 c35 -1 39 -37 5 -44 l-23 -4 23 -2 c32 -2 28 -29 -5 -34 l-28
-4 28 -2 c20 -1 27 -6 27 -20 0 -14 -8 -21 -27 -24 l-28 -4 28 -2 c33 -1 38
-31 5 -32 -22 0 -22 -1 -3 -8 13 -5 22 -21 26 -47 3 -21 7 202 8 496 l2 535
19 -49 c55 -142 173 -217 317 -202 97 10 101 11 96 20 -3 4 5 5 18 1 14 -4 19
-3 12 2 -18 12 52 67 77 60 11 -3 24 0 29 7 13 16 -44 13 -64 -4 -26 -22 -26
-5 0 20 18 16 25 19 25 9 1 -8 10 -2 24 15 17 20 30 27 44 24 12 -3 23 0 25 7
4 8 -3 10 -19 7 -27 -5 -28 -3 -14 33 8 22 15 26 35 23 14 -3 25 -1 25 3 0 5
-11 9 -24 9 -21 0 -24 4 -22 28 3 21 10 28 32 33 l29 7 -31 1 c-28 1 -31 4
-32 32 -1 28 2 31 24 26 13 -2 24 0 24 4 0 5 -13 9 -28 9 -21 0 -30 7 -39 29
-10 28 -9 30 16 34 25 4 25 4 -4 6 -20 1 -38 12 -53 32 l-24 29 22 0 c19 0 21
2 10 16 -8 8 -23 20 -34 25 -16 8 -15 6 4 -10 21 -17 22 -21 7 -21 -20 0 -99
55 -91 63 3 3 -3 3 -14 0 -11 -2 -23 0 -26 6 -10 15 -131 13 -181 -3z m172
-11 c77 -23 136 -74 174 -150 29 -59 31 -71 27 -137 -5 -73 -42 -172 -56 -151
-4 5 -25 -9 -46 -31 -22 -22 -31 -36 -21 -33 15 6 16 5 6 -7 -43 -52 -213 -68
-288 -28 -50 26 -113 79 -113 95 0 6 17 -6 38 -26 21 -20 42 -37 47 -37 5 0
-7 13 -27 30 -55 46 -88 120 -88 199 1 108 50 190 144 239 64 33 171 37 224 8
19 -9 36 -15 39 -12 15 14 -77 40 -142 41 -82 0 -141 -24 -198 -82 -21 -20
-37 -32 -37 -27 0 15 61 70 100 89 75 38 137 44 217 20z m-371 -264 c-8 -12
-715 -11 -722 0 -3 5 154 9 361 9 217 0 364 -4 361 -9z"/>
<path d="M3002 3309 c-201 -39 -271 -302 -117 -438 53 -46 99 -63 170 -63 70
0 117 17 169 62 59 52 80 102 81 190 0 64 -4 82 -27 121 -61 103 -162 150
-276 128z m38 -64 c0 -8 -7 -15 -15 -15 -16 0 -20 12 -8 23 11 12 23 8 23 -8z
m52 0 c0 -5 -5 -11 -11 -13 -6 -2 -11 4 -11 13 0 9 5 15 11 13 6 -2 11 -8 11
-13z m-104 -17 c-6 -18 -28 -21 -28 -4 0 9 7 16 16 16 9 0 14 -5 12 -12z m160
1 c-2 -6 -8 -10 -13 -10 -5 0 -11 4 -13 10 -2 6 4 11 13 11 9 0 15 -5 13 -11z
m-208 -35 c0 -17 -22 -14 -28 4 -2 7 3 12 12 12 9 0 16 -7 16 -16z m255 7 c7
-12 -12 -24 -25 -16 -11 7 -4 25 10 25 5 0 11 -4 15 -9z m-155 -26 c0 -8 -7
-15 -15 -15 -8 0 -15 7 -15 15 0 8 7 15 15 15 8 0 15 -7 15 -15z m58 -3 c2 -7
-3 -12 -12 -12 -9 0 -16 7 -16 16 0 17 22 14 28 -4z m-190 -20 c2 -7 -3 -12
-12 -12 -9 0 -16 7 -16 16 0 17 22 14 28 -4z m322 -3 c0 -5 -7 -9 -15 -9 -15
0 -20 12 -9 23 8 8 24 -1 24 -14z m-240 -5 c0 -9 -5 -14 -12 -12 -18 6 -21 28
-4 28 9 0 16 -7 16 -16z m152 1 c0 -5 -5 -11 -11 -13 -6 -2 -11 4 -11 13 0 9
5 15 11 13 6 -2 11 -8 11 -13z m-72 -30 c0 -8 -7 -15 -15 -15 -8 0 -15 7 -15
15 0 8 7 15 15 15 8 0 15 -7 15 -15z m-182 -13 c2 -7 -3 -12 -12 -12 -9 0 -16
7 -16 16 0 17 22 14 28 -4z m67 -12 c-5 -8 -11 -8 -17 -2 -6 6 -7 16 -3 22 5
8 11 8 17 2 6 -6 7 -16 3 -22z m225 9 c0 -5 -7 -9 -15 -9 -15 0 -20 12 -9 23
8 8 24 -1 24 -14z m70 0 c0 -5 -7 -9 -15 -9 -15 0 -20 12 -9 23 8 8 24 -1 24
-14z m-230 -15 c0 -17 -22 -14 -28 4 -2 7 3 12 12 12 9 0 16 -7 16 -16z m98 4
c-6 -18 -28 -21 -28 -4 0 9 7 16 16 16 9 0 14 -5 12 -12z m-238 -43 c0 -8 -4
-15 -9 -15 -13 0 -22 16 -14 24 11 11 23 6 23 -9z m70 0 c0 -8 -4 -15 -9 -15
-13 0 -22 16 -14 24 11 11 23 6 23 -9z m235 6 c7 -12 -12 -24 -25 -16 -11 7
-4 25 10 25 5 0 11 -4 15 -9z m70 0 c7 -12 -12 -24 -25 -16 -11 7 -4 25 10 25
5 0 11 -4 15 -9z m-235 -16 c0 -8 -7 -15 -15 -15 -16 0 -20 12 -8 23 11 12 23
8 23 -8z m98 -3 c2 -7 -3 -12 -12 -12 -9 0 -16 7 -16 16 0 17 22 14 28 -4z
m-48 -27 c0 -8 -7 -15 -15 -15 -8 0 -15 7 -15 15 0 8 7 15 15 15 8 0 15 -7 15
-15z m-178 -10 c0 -5 -5 -11 -11 -13 -6 -2 -11 4 -11 13 0 9 5 15 11 13 6 -2
11 -8 11 -13z m78 0 c0 -8 -4 -15 -9 -15 -13 0 -22 16 -14 24 11 11 23 6 23
-9z m195 6 c7 -12 -12 -24 -25 -16 -11 7 -4 25 10 25 5 0 11 -4 15 -9z m75 -6
c0 -8 -7 -15 -15 -15 -16 0 -20 12 -8 23 11 12 23 8 23 -8z m-225 -34 c7 -12
-12 -24 -25 -16 -11 7 -4 25 10 25 5 0 11 -4 15 -9z m105 -6 c0 -8 -4 -15 -9
-15 -13 0 -22 16 -14 24 11 11 23 6 23 -9z m-200 -10 c0 -8 -4 -15 -9 -15 -13
0 -22 16 -14 24 11 11 23 6 23 -9z m148 -3 c2 -7 -3 -12 -12 -12 -9 0 -16 7
-16 16 0 17 22 14 28 -4z m147 9 c7 -12 -12 -24 -25 -16 -11 7 -4 25 10 25 5
0 11 -4 15 -9z m-250 -40 c7 -12 -12 -24 -25 -16 -11 7 -4 25 10 25 5 0 11 -4
15 -9z m210 0 c7 -12 -12 -24 -25 -16 -11 7 -4 25 10 25 5 0 11 -4 15 -9z
m-160 -21 c3 -6 -1 -13 -10 -16 -19 -8 -30 0 -20 15 8 14 22 14 30 1z m110 1
c7 -12 -12 -24 -25 -16 -11 7 -4 25 10 25 5 0 11 -4 15 -9z m-55 -16 c0 -8 -7
-15 -15 -15 -8 0 -15 7 -15 15 0 8 7 15 15 15 8 0 15 -7 15 -15z"/>
<path d="M3244 3247 c74 -74 95 -185 56 -289 -13 -37 -15 -47 -4 -33 38 51 44
188 10 254 -19 37 -84 111 -97 111 -5 0 11 -19 35 -43z"/>
<path d="M2924 2815 c28 -21 121 -38 169 -30 50 8 112 33 104 41 -3 3 -20 -2
-39 -12 -44 -24 -161 -24 -205 -1 -39 21 -55 22 -29 2z"/>
<path d="M1047 3332 c-10 -10 -17 -27 -16 -38 0 -15 2 -14 10 6 5 14 17 31 26
38 9 6 12 12 6 12 -5 0 -17 -8 -26 -18z"/>
<path d="M1201 3298 c-1 -9 -7 -18 -13 -21 -7 -2 0 -4 16 -4 15 0 24 2 19 6
-6 3 -13 13 -16 21 -4 12 -6 12 -6 -2z"/>
<path d="M1118 3293 c12 -2 30 -2 40 0 9 3 -1 5 -23 4 -22 0 -30 -2 -17 -4z"/>
<path d="M1298 3283 c6 -2 18 -2 25 0 6 3 1 5 -13 5 -14 0 -19 -2 -12 -5z"/>
<path d="M3940 3272 c27 -22 22 -35 -24 -63 -17 -10 -26 -19 -19 -19 6 0 25
11 41 25 22 18 32 21 40 13 7 -7 12 -8 12 -2 0 12 -52 64 -64 64 -5 0 2 -8 14
-18z"/>
<path d="M1138 3220 c-12 -16 -30 -30 -41 -30 -25 0 -57 -18 -57 -32 0 -6 8
-4 18 5 30 27 60 22 64 -10 2 -16 12 -32 25 -38 16 -8 19 -15 12 -26 -15 -24
-10 -35 7 -11 8 12 26 22 38 22 13 0 37 7 52 15 18 9 23 15 12 15 -9 0 -20 -5
-24 -11 -8 -14 -96 -2 -106 14 -14 22 -8 64 13 91 11 14 18 26 15 26 -3 0 -15
-13 -28 -30z"/>
<path d="M3330 3240 c0 -5 5 -10 11 -10 5 0 7 5 4 10 -3 6 -8 10 -11 10 -2 0
-4 -4 -4 -10z"/>
<path d="M3638 3238 c5 -5 16 -8 23 -6 8 3 3 7 -10 11 -17 4 -21 3 -13 -5z"/>
<path d="M1040 3231 c0 -6 4 -13 10 -16 6 -3 7 1 4 9 -7 18 -14 21 -14 7z"/>
<path d="M3675 3210 c-30 -12 -47 -36 -43 -62 2 -19 9 -23 43 -25 l40 -1 -35
6 c-26 5 -36 13 -38 29 -4 27 47 57 81 48 17 -5 19 -4 7 4 -18 12 -28 13 -55
1z"/>
<path d="M3964 3174 c-24 -26 -27 -34 -14 -34 14 0 24 13 48 63 6 14 -3 6 -34
-29z"/>
<path d="M1186 3185 c-3 -9 -6 -22 -5 -28 0 -7 5 -1 10 12 5 13 8 26 5 28 -2
2 -6 -3 -10 -12z"/>
<path d="M1269 3177 c36 -39 112 -34 111 8 0 5 -5 2 -11 -7 -14 -25 -60 -23
-95 4 l-29 22 24 -27z"/>
<path d="M3363 3175 c-9 -10 -8 -14 8 -18 20 -5 24 0 11 19 -5 9 -10 8 -19 -1z"/>
<path d="M3829 3168 c0 -2 -2 -15 -3 -30 -1 -21 1 -24 11 -16 9 7 10 14 3 23
-5 6 -7 15 -3 18 3 4 3 7 0 7 -4 0 -7 -1 -8 -2z"/>
<path d="M1675 3150 c-28 -8 -26 -8 15 -9 108 -1 292 -10 296 -14 8 -7 -217
-6 -240 2 -11 3 -43 4 -71 0 -45 -5 -46 -6 -12 -7 35 -2 37 -4 36 -34 0 -28
-2 -30 -9 -13 -7 17 -9 17 -9 3 -1 -20 -21 -25 -21 -5 0 8 -4 7 -10 -3 -9 -13
-10 -13 -10 0 0 9 -3 11 -8 5 -11 -15 -42 -18 -42 -3 0 9 -3 9 -10 -2 -9 -13
-10 -13 -10 0 0 13 -1 13 -10 0 -9 -13 -10 -13 -10 0 0 22 11 35 45 54 26 15
27 16 5 10 -41 -11 -60 -34 -60 -74 0 -42 23 -69 61 -71 33 -1 383 11 385 14
1 1 4 32 6 70 l4 67 -41 1 c-22 1 -76 2 -120 3 -44 1 -91 5 -105 8 -14 3 -38
2 -55 -2z m146 -40 c47 0 49 -1 49 -27 0 -22 -2 -25 -10 -13 -6 10 -10 11 -10
3 0 -20 -20 -15 -21 5 -1 15 -2 14 -6 -2 -4 -15 -7 -16 -14 -5 -6 10 -9 10 -9
2 0 -20 -20 -15 -21 5 0 14 -2 14 -9 -3 -6 -13 -9 -15 -9 -5 -1 13 -2 13 -11
0 -7 -11 -10 -7 -10 19 0 26 3 32 16 27 9 -3 38 -6 65 -6z m159 -25 c0 -14 -4
-25 -10 -25 -5 0 -10 6 -10 13 0 8 -3 8 -9 -2 -8 -12 -12 -12 -25 2 -25 25
-19 37 19 37 31 0 35 -3 35 -25z"/>
<path d="M1091 3134 c-1 -11 6 -29 15 -40 8 -10 12 -13 9 -6 -4 8 -11 26 -15
40 -7 22 -8 23 -9 6z"/>
<path d="M1020 3106 c0 -7 9 -16 21 -19 20 -5 20 -5 3 14 -20 23 -24 23 -24 5z"/>
<path d="M3988 3095 c6 -33 -34 -89 -57 -79 -9 4 -26 8 -38 9 -13 1 -26 4 -29
8 -3 3 -17 2 -30 -3 -21 -8 -24 -6 -25 13 -1 12 -6 -1 -11 -29 -8 -46 -11 -51
-31 -46 -12 2 -29 10 -37 16 -13 9 -13 9 -3 -5 11 -13 9 -18 -12 -27 -14 -6
-25 -20 -25 -30 0 -20 18 -42 34 -42 5 0 1 6 -10 14 -15 12 -17 18 -8 33 17
28 71 29 102 1 l26 -23 -17 27 c-23 36 -21 54 5 72 29 21 39 20 31 -1 -7 -17
-6 -17 11 0 23 23 42 22 60 -5 20 -28 20 -51 1 -88 -9 -17 -13 -30 -11 -30 13
0 37 65 33 87 -3 17 4 34 24 56 28 30 39 80 20 91 -4 3 -6 -5 -3 -19z"/>
<path d="M3380 3100 c-13 -8 -12 -10 3 -10 9 0 17 5 17 10 0 12 -1 12 -20 0z"/>
<path d="M962 3088 c-5 -7 -13 -33 -17 -58 -6 -40 -4 -48 17 -65 l23 -20 -19
22 c-26 32 -12 102 24 120 23 12 24 13 4 13 -12 0 -26 -6 -32 -12z"/>
<path d="M1260 3080 c-11 -7 -7 -9 15 -7 41 3 46 -32 11 -68 -25 -24 -25 -27
-10 -50 9 -14 13 -34 10 -47 l-6 -23 11 22 c9 18 9 27 -3 46 -15 21 -14 25 8
50 26 31 30 57 12 75 -14 14 -28 15 -48 2z"/>
<path d="M3650 3075 c19 -23 65 -28 99 -10 43 22 39 26 -8 8 -36 -14 -42 -14
-71 1 -25 12 -29 12 -20 1z"/>
<path d="M3889 3071 c13 -12 28 -21 34 -21 12 0 11 0 -28 24 l-30 17 24 -20z"/>
<path d="M1023 3033 c9 -2 25 -2 35 0 9 3 1 5 -18 5 -19 0 -27 -2 -17 -5z"/>
<path d="M1108 3012 c-3 -11 0 -19 7 -19 7 0 10 8 7 19 -2 10 -6 18 -7 18 -1
0 -5 -8 -7 -18z"/>
<path d="M3378 3023 c7 -3 16 -2 19 1 4 3 -2 6 -13 5 -11 0 -14 -3 -6 -6z"/>
<path d="M3711 3014 c0 -11 3 -14 6 -6 3 7 2 16 -1 19 -3 4 -6 -2 -5 -13z"/>
<path d="M2330 2990 l-25 -8 28 -1 c15 -1 27 4 27 9 0 6 -1 10 -2 9 -2 -1 -14
-5 -28 -9z"/>
<path d="M1218 2973 c6 -2 18 -2 25 0 6 3 1 5 -13 5 -14 0 -19 -2 -12 -5z"/>
<path d="M3370 2960 c-13 -8 -12 -10 3 -10 9 0 17 5 17 10 0 12 -1 12 -20 0z"/>
<path d="M1016 2951 c-11 -17 -27 -66 -19 -56 12 13 34 65 28 65 -2 0 -6 -4
-9 -9z"/>
<path d="M2335 2950 c-3 -5 1 -10 9 -10 9 0 16 5 16 10 0 6 -4 10 -9 10 -6 0
-13 -4 -16 -10z"/>
<path d="M4018 2928 c21 -26 10 -50 -28 -65 -25 -9 -27 -12 -8 -8 14 3 33 8
42 11 12 5 16 0 16 -18 0 -26 -25 -44 -70 -51 -21 -4 -20 -4 6 -6 18 0 42 7
54 17 20 16 22 24 16 64 -4 26 -15 52 -24 60 -15 12 -16 11 -4 -4z"/>
<path d="M1064 2905 c-9 -14 -15 -28 -12 -30 2 -2 12 9 22 25 21 36 13 40 -10
5z"/>
<path d="M1130 2918 c0 -9 12 -31 26 -48 21 -24 33 -30 57 -28 17 2 36 12 44
24 12 19 11 24 -8 45 l-21 24 16 -24 c29 -45 -14 -78 -65 -50 -12 6 -27 25
-34 42 -8 18 -14 24 -15 15z"/>
<path d="M2320 2916 c0 -2 9 -6 20 -9 11 -3 20 -1 20 4 0 5 -9 9 -20 9 -11 0
-20 -2 -20 -4z"/>
<path d="M3340 2889 c0 -5 5 -7 10 -4 6 3 10 8 10 11 0 2 -4 4 -10 4 -5 0 -10
-5 -10 -11z"/>
<path d="M1000 2872 c0 -7 11 -17 25 -24 13 -6 22 -14 20 -18 -2 -3 20 -5 50
-2 54 4 55 4 70 -29 11 -26 14 -29 15 -13 0 32 -31 54 -79 54 -43 0 -80 14
-93 34 -5 8 -8 7 -8 -2z"/>
<path d="M2300 2876 c0 -2 14 -6 30 -8 17 -3 30 -1 30 4 0 4 -13 8 -30 8 -16
0 -30 -2 -30 -4z"/>
<path d="M3877 2853 c-11 -10 -8 -33 4 -33 5 0 7 5 3 11 -3 6 0 15 7 20 8 5 9
9 3 9 -6 0 -14 -3 -17 -7z"/>
<path d="M3686 2837 c7 -20 57 -40 86 -34 18 3 17 5 -8 6 -17 0 -43 10 -58 22
-18 14 -24 16 -20 6z"/>
<path d="M2313 2833 c9 -2 25 -2 35 0 9 3 1 5 -18 5 -19 0 -27 -2 -17 -5z"/>
<path d="M3264 2814 c-18 -14 -18 -15 4 -4 12 6 22 13 22 15 0 8 -5 6 -26 -11z"/>
<path d="M3842 2816 c7 -8 15 -12 17 -11 5 6 -10 25 -20 25 -5 0 -4 -6 3 -14z"/>
<path d="M1025 2799 c-4 -6 -5 -12 -2 -15 2 -3 7 2 10 11 7 17 1 20 -8 4z"/>
<path d="M2330 2800 l-25 -8 28 -1 c15 -1 27 4 27 9 0 6 -1 10 -2 9 -2 -1 -14
-5 -28 -9z"/>
<path d="M1117 2755 c7 -49 13 -58 13 -19 0 16 -5 36 -10 44 -6 10 -7 2 -3
-25z"/>
<path d="M1243 2772 c37 -15 60 -94 35 -122 -11 -12 -10 -12 5 -1 9 7 17 25
17 40 0 35 -36 91 -57 90 -17 0 -17 -1 0 -7z"/>
<path d="M3806 2763 c-3 -10 -26 -26 -51 -37 -48 -19 -70 -46 -60 -74 4 -14
-4 -23 -29 -35 -60 -28 -54 -89 8 -86 14 1 10 4 -11 10 -18 5 -33 16 -33 24 0
18 48 55 72 55 16 0 17 3 8 20 -7 14 -8 26 0 39 10 20 63 51 85 51 16 0 40
-29 54 -65 l11 -30 -6 34 c-5 27 -3 32 7 25 8 -5 24 -7 37 -5 26 3 52 -15 52
-35 0 -8 -15 -23 -32 -34 -18 -11 -28 -20 -21 -20 6 0 25 12 42 26 l30 25 7
-26 c9 -35 -20 -65 -73 -76 -34 -8 -33 -8 14 -4 51 4 51 4 67 -33 8 -20 15
-31 15 -24 1 7 -6 26 -14 42 -13 24 -13 32 -1 55 15 29 11 58 -10 76 -11 9
-10 15 11 31 17 13 25 29 24 46 l-2 27 -4 -25 c-8 -42 -20 -49 -81 -45 -43 3
-58 8 -63 22 -7 17 -8 17 -8 1 -1 -16 -3 -16 -22 3 -13 13 -18 27 -14 40 4 10
4 19 1 19 -2 0 -7 -8 -10 -17z"/>
<path d="M3880 2774 c0 -7 9 -22 21 -35 16 -19 18 -20 10 -4 -17 34 -31 51
-31 39z"/>
<path d="M1003 2755 c0 -8 7 -15 15 -15 7 0 12 5 10 12 -6 18 -25 21 -25 3z"/>
<path d="M2330 2760 c0 -5 7 -10 15 -10 8 0 15 5 15 10 0 6 -7 10 -15 10 -8 0
-15 -4 -15 -10z"/>
<path d="M3712 2745 c0 -16 2 -22 5 -12 2 9 2 23 0 30 -3 6 -5 -1 -5 -18z"/>
<path d="M1167 2741 c-4 -17 -3 -21 5 -13 5 5 8 16 6 23 -3 8 -7 3 -11 -10z"/>
<path d="M946 2728 c-9 -12 -16 -34 -15 -48 1 -27 4 -22 13 23 4 16 16 32 29
37 16 6 18 9 5 9 -9 1 -24 -9 -32 -21z"/>
<path d="M1055 2720 c10 -11 20 -20 23 -20 3 0 -3 9 -13 20 -10 11 -20 20 -23
20 -3 0 3 -9 13 -20z"/>
<path d="M1235 2730 c-12 -4 -27 -15 -35 -25 -10 -12 -5 -11 23 5 20 12 37 24
37 26 0 5 0 5 -25 -6z"/>
<path d="M2310 2726 c0 -2 11 -6 25 -8 14 -3 25 -1 25 3 0 5 -11 9 -25 9 -14
0 -25 -2 -25 -4z"/>
<path d="M995 2680 c27 -12 43 -12 25 0 -8 5 -22 9 -30 9 -10 0 -8 -3 5 -9z"/>
<path d="M1100 2681 c0 -6 4 -13 10 -16 6 -3 7 1 4 9 -7 18 -14 21 -14 7z"/>
<path d="M2313 2683 c9 -2 25 -2 35 0 9 3 1 5 -18 5 -19 0 -27 -2 -17 -5z"/>
<path d="M2320 2650 l-35 -7 38 -2 c20 0 37 4 37 9 0 6 -1 9 -2 9 -2 -1 -19
-5 -38 -9z"/>
<path d="M1088 2643 c7 -3 16 -2 19 1 4 3 -2 6 -13 5 -11 0 -14 -3 -6 -6z"/>
<path d="M1188 2643 c7 -3 16 -2 19 1 4 3 -2 6 -13 5 -11 0 -14 -3 -6 -6z"/>
<path d="M930 2636 c0 -2 8 -10 18 -17 15 -13 16 -12 3 4 -13 16 -21 21 -21
13z"/>
<path d="M1030 2623 c-36 -25 -49 -45 -50 -75 0 -41 10 -58 35 -58 13 0 27 -4
30 -10 3 -5 14 -10 25 -10 14 0 17 -6 13 -22 -4 -22 -4 -22 9 2 15 27 50 40
88 32 38 -7 50 -21 52 -61 1 -36 1 -36 5 -4 2 18 -1 41 -6 52 -7 13 -8 22 -1
26 17 11 11 41 -12 61 -23 19 -23 19 -5 -2 9 -11 17 -28 17 -37 0 -35 -77 -28
-99 10 -6 10 -11 13 -11 6 0 -6 5 -15 10 -18 16 -10 12 -28 -5 -22 -8 4 -17 2
-20 -3 -7 -12 -55 -13 -55 -2 0 4 6 14 13 22 10 12 9 12 -5 1 -28 -21 -63 -10
-66 21 -4 36 12 65 51 88 18 11 27 20 22 20 -6 0 -22 -8 -35 -17z"/>
<path d="M1238 2617 c11 -12 25 -33 31 -47 9 -23 10 -23 7 9 -2 19 -11 40 -21
48 -30 21 -40 15 -17 -10z"/>
<path d="M2330 2610 c-12 -8 -11 -10 8 -10 12 0 22 5 22 10 0 13 -11 13 -30 0z"/>
<path d="M2330 2570 c19 -13 30 -13 30 0 0 6 -10 10 -22 10 -19 0 -20 -2 -8
-10z"/>
<path d="M3830 2546 c0 -2 7 -7 16 -10 8 -3 12 -2 9 4 -6 10 -25 14 -25 6z"/>
<path d="M3630 2513 c0 -17 29 -43 48 -42 13 0 11 3 -5 9 -12 5 -26 17 -32 27
-6 10 -11 13 -11 6z"/>
<path d="M3741 2489 c-37 -19 -51 -35 -51 -59 0 -9 5 -7 16 8 15 22 62 33 49
11 -4 -6 2 -5 14 3 16 9 26 10 39 2 23 -15 28 -79 7 -110 -8 -13 -13 -24 -10
-24 3 0 14 14 25 32 13 21 17 41 13 62 l-6 30 28 -22 c15 -12 38 -22 51 -22
23 0 74 45 74 65 0 5 -13 -5 -28 -23 -33 -39 -64 -41 -97 -7 -14 13 -25 19
-25 13 0 -7 -6 -3 -14 7 -10 14 -24 19 -52 17 l-37 -3 24 20 c29 24 25 24 -20
0z"/>
<path d="M3879 2480 c13 -11 27 -20 32 -20 18 0 8 10 -23 25 l-33 16 24 -21z"/>
<path d="M2325 2460 l-30 -8 33 -1 c17 0 32 4 32 9 0 6 -1 9 -2 9 -2 -1 -16
-5 -33 -9z"/>
<path d="M1326 2423 c31 -34 40 -68 23 -91 -13 -15 -12 -16 4 -3 9 7 17 23 17
34 0 22 -45 87 -60 87 -5 0 2 -12 16 -27z"/>
<path d="M1176 2415 c8 -37 14 -45 14 -19 0 10 -5 26 -10 34 -8 11 -9 7 -4
-15z"/>
<path d="M2330 2420 c0 -5 7 -10 15 -10 8 0 15 5 15 10 0 6 -7 10 -15 10 -8 0
-15 -4 -15 -10z"/>
<path d="M1044 2396 c-35 -16 -44 -32 -44 -85 0 -37 14 -61 35 -61 5 0 2 5 -7
11 -13 7 -18 23 -18 54 0 49 19 75 56 75 13 0 24 5 24 10 0 13 -8 12 -46 -4z"/>
<path d="M1276 2385 c-14 -13 -26 -27 -26 -31 0 -4 15 5 32 22 18 16 35 30 37
32 2 1 0 2 -6 2 -5 0 -22 -11 -37 -25z"/>
<path d="M3600 2392 c-19 -16 -21 -22 -11 -40 6 -12 16 -22 22 -22 6 0 3 7 -5
16 -21 20 -20 31 3 44 28 14 63 12 91 -6 l25 -16 -24 21 c-29 26 -71 27 -101
3z"/>
<path d="M2313 2383 c9 -2 15 -9 12 -14 -10 -15 1 -10 15 6 11 13 8 15 -16 14
-17 -1 -22 -3 -11 -6z"/>
<path d="M3918 2365 c17 -38 21 -82 9 -100 -7 -9 -29 -20 -47 -25 l-35 -8 31
-1 c46 -2 77 36 69 82 -4 20 -14 44 -22 54 -13 17 -14 17 -5 -2z"/>
<path d="M1031 2336 c2 -2 18 -6 34 -10 22 -5 26 -4 15 4 -14 9 -59 15 -49 6z"/>
<path d="M1189 2333 c-10 -2 -19 -14 -22 -26 -6 -22 -6 -22 9 -2 13 17 17 18
37 6 21 -13 21 -13 7 5 -8 10 -14 19 -15 20 0 0 -7 -1 -16 -3z"/>
<path d="M1274 2311 c40 -14 76 -50 76 -78 0 -19 -5 -23 -29 -23 -16 0 -35 -8
-42 -17 -11 -15 -11 -16 1 -5 8 6 33 12 55 12 31 0 47 -6 65 -25 l24 -25 -32
-33 c-18 -18 -32 -37 -32 -42 0 -6 5 -2 11 8 17 29 73 49 104 37 17 -7 24 -7
20 0 -3 6 -13 10 -21 10 -8 0 -12 4 -9 10 4 6 -1 7 -11 3 -13 -5 -15 -3 -9 7
5 8 4 11 -3 6 -6 -4 -21 7 -33 24 -13 16 -29 30 -36 30 -7 0 -13 11 -13 24 0
36 -39 75 -80 81 -33 5 -34 5 -6 -4z"/>
<path d="M3570 2303 c0 -3 10 -17 23 -32 20 -23 27 -25 67 -20 l45 6 -43 1
c-31 2 -50 9 -67 27 -14 13 -25 22 -25 18z"/>
<path d="M3878 2303 c6 -2 18 -2 25 0 6 3 1 5 -13 5 -14 0 -19 -2 -12 -5z"/>
<path d="M1191 2284 c0 -11 3 -14 6 -6 3 7 2 16 -1 19 -3 4 -6 -2 -5 -13z"/>
<path d="M1096 2265 c-8 -8 -19 -15 -24 -15 -6 0 -13 -7 -16 -16 -3 -8 -2 -13
2 -10 4 3 8 -11 8 -29 0 -19 3 -37 6 -40 10 -11 69 -24 63 -14 -4 5 -2 9 3 9
6 0 13 8 16 17 6 16 6 16 -12 0 -25 -23 -49 -21 -62 3 -13 25 -5 57 23 88 23
24 17 31 -7 7z"/>
<path d="M3730 2270 c8 -5 22 -9 30 -9 10 0 8 3 -5 9 -27 12 -43 12 -25 0z"/>
<path d="M1419 2243 c-10 -11 -10 -14 -1 -9 8 5 12 -1 13 -21 l1 -28 7 30 c9
43 38 45 50 3 5 -18 10 -25 10 -15 3 50 -51 77 -80 40z"/>
<path d="M3585 2220 c-40 -7 -46 -47 -13 -76 l23 -19 -18 22 c-24 28 -18 57
12 61 27 4 68 -30 74 -62 4 -20 4 -20 6 2 0 12 -11 35 -26 50 -22 22 -34 27
-58 22z"/>
<path d="M3679 2203 c-11 -15 -11 -16 1 -5 15 13 52 16 63 5 4 -3 -1 -12 -11
-20 -15 -13 -15 -13 5 -4 64 31 83 -60 21 -103 -12 -9 -18 -16 -12 -16 6 0 19
9 29 20 10 11 24 20 31 20 14 0 84 39 84 47 0 3 -16 -4 -36 -16 -46 -28 -54
-27 -45 7 7 22 3 34 -16 57 -16 20 -21 23 -16 10 7 -19 6 -19 -20 -2 -34 22
-61 22 -78 0z"/>
<path d="M1200 2200 c0 -10 49 -50 61 -50 5 0 9 5 9 11 0 5 -4 7 -10 4 -5 -3
-21 5 -35 19 -14 14 -25 21 -25 16z"/>
<path d="M3892 2180 c0 -14 2 -19 5 -12 2 6 2 18 0 25 -3 6 -5 1 -5 -13z"/>
<path d="M3517 2173 c-4 -3 -7 -19 -7 -35 0 -34 48 -88 77 -88 11 1 6 6 -14
15 -38 16 -56 47 -51 86 5 31 5 32 -5 22z"/>
<path d="M1180 2141 c-16 -10 -26 -26 -27 -44 -1 -15 2 -25 8 -22 5 4 9 13 9
20 0 21 44 47 66 39 10 -4 30 -16 44 -28 l25 -21 -22 25 c-33 38 -73 50 -103
31z"/>
<path d="M1322 2135 c0 -16 2 -22 5 -12 2 9 2 23 0 30 -3 6 -5 -1 -5 -18z"/>
<path d="M1245 2070 c27 -12 43 -12 25 0 -8 5 -22 9 -30 9 -10 0 -8 -3 5 -9z"/>
<path d="M1490 2072 c14 -5 26 -15 28 -25 5 -23 -42 -67 -70 -67 -19 0 -20 -2
-8 -10 9 -6 10 -10 3 -10 -14 0 -43 -28 -43 -40 0 -5 11 2 24 15 37 37 72 42
102 14 13 -12 25 -34 25 -48 2 -25 2 -25 6 -3 5 28 -19 68 -47 77 -19 6 -19 7
2 36 26 35 16 63 -23 66 l-24 2 25 -7z"/>
<path d="M3475 2038 c-20 -77 -30 -98 -44 -99 -14 0 -14 -1 -1 -6 8 -3 24 -13
35 -22 19 -16 20 -15 3 4 -14 17 -15 25 -5 45 15 30 61 42 51 13 -6 -17 -6
-17 8 1 19 24 49 17 67 -15 13 -24 13 -30 -6 -68 -23 -46 -22 -54 3 -15 17 25
27 117 12 108 -4 -3 -11 1 -14 9 -4 11 -13 13 -32 8 -15 -4 -38 -5 -51 -3 -20
3 -22 8 -17 33 7 34 0 39 -9 7z"/>
<path d="M3696 2051 c-4 -5 3 -7 14 -4 23 6 26 13 6 13 -8 0 -17 -4 -20 -9z"/>
<path d="M3835 2044 c7 -29 -4 -54 -24 -54 -13 0 -13 -2 -2 -9 8 -5 11 -16 8
-25 -7 -18 -72 -23 -82 -6 -3 6 -10 10 -16 10 -5 0 -1 -8 9 -18 19 -19 75 -18
90 2 21 29 33 86 22 103 -10 16 -10 16 -5 -3z"/>
<path d="M3752 2005 c9 -10 21 -16 28 -13 7 2 -1 10 -16 17 -27 12 -28 11 -12
-4z"/>
<path d="M1090 1990 c-38 -38 -19 -80 35 -79 l30 0 -35 12 c-42 15 -49 38 -19
66 13 12 20 21 16 21 -4 0 -16 -9 -27 -20z"/>
<path d="M1178 1976 c9 -11 11 -16 5 -12 -10 5 -11 -1 -7 -26 7 -38 59 -88 89
-86 18 1 18 1 -2 5 -43 8 -47 28 -11 69 23 26 26 33 11 24 -12 -8 -27 -24 -34
-36 -6 -13 -18 -20 -25 -17 -20 8 -17 53 5 77 20 21 20 21 -14 21 -32 0 -33
-1 -17 -19z"/>
<path d="M1129 1954 c-13 -15 -18 -25 -10 -22 13 4 49 48 39 48 -2 0 -15 -12
-29 -26z"/>
<path d="M3642 1948 c-2 -27 3 -40 17 -47 23 -13 35 -41 22 -54 -6 -6 -27 -13
-48 -17 -35 -7 -35 -8 -8 -9 17 0 37 3 45 9 9 6 17 5 22 -3 5 -8 8 -5 8 7 0
11 8 29 18 40 14 17 14 19 0 8 -14 -11 -20 -9 -41 12 -14 14 -28 40 -30 58
l-4 33 -1 -37z"/>
<path d="M1656 1927 c33 -30 35 -36 29 -70 -4 -20 -12 -37 -18 -37 -6 0 -1 -7
12 -16 16 -12 20 -19 12 -27 -6 -6 -11 -16 -11 -21 0 -6 7 0 16 12 12 17 25
22 58 22 47 0 62 -11 77 -57 8 -26 9 -26 4 7 -7 48 -35 70 -87 65 -31 -3 -38
-1 -29 8 14 14 15 30 1 22 -5 -3 -10 0 -11 7 0 7 -5 4 -10 -7 -6 -14 -7 -8 -3
22 5 38 2 46 -24 73 -17 16 -35 30 -41 30 -6 0 5 -15 25 -33z"/>
<path d="M3356 1924 c-22 -21 -20 -31 2 -12 9 9 24 18 32 21 12 4 12 6 -2 6
-9 1 -24 -6 -32 -15z"/>
<path d="M1320 1916 c0 -11 12 -33 27 -48 22 -23 25 -31 14 -38 -14 -8 -18
-76 -6 -89 3 -3 5 11 3 31 -3 47 16 68 61 69 33 0 34 1 13 10 -13 5 -28 7 -33
4 -16 -10 -50 16 -64 48 -10 23 -14 26 -15 13z"/>
<path d="M1618 1913 c-18 -21 -31 -43 -25 -43 2 0 13 14 25 30 25 33 24 41 0
13z"/>
<path d="M1496 1895 c24 -39 24 -40 24 -28 0 6 -9 21 -21 34 l-20 24 17 -30z"/>
<path d="M1733 1883 c-1 -35 -1 -36 6 -8 8 40 36 44 49 8 8 -22 11 -24 11 -7
1 26 -17 44 -44 44 -17 0 -21 -6 -22 -37z"/>
<path d="M3362 1874 c10 -10 20 -16 22 -13 3 3 -5 11 -17 18 -21 13 -21 12 -5
-5z"/>
<path d="M1540 1825 c-7 -8 -15 -13 -19 -11 -3 2 -6 -6 -6 -19 0 -13 3 -21 8
-18 4 2 7 11 7 19 0 8 4 14 9 14 5 0 11 7 15 15 7 19 2 19 -14 0z"/>
<path d="M3330 1834 c0 -6 6 -16 13 -24 10 -12 9 -12 -5 -1 -13 10 -20 10 -37
-1 -12 -7 -21 -16 -21 -20 0 -5 8 -3 19 3 26 17 50 5 63 -31 6 -17 12 -29 14
-27 3 2 0 16 -5 30 -10 25 -9 25 32 21 40 -3 40 -3 9 5 -18 5 -44 19 -58 32
-13 12 -24 18 -24 13z"/>
<path d="M1618 1823 c6 -2 18 -2 25 0 6 3 1 5 -13 5 -14 0 -19 -2 -12 -5z"/>
<path d="M3520 1815 c0 -8 -4 -15 -10 -15 -5 0 -10 -5 -10 -11 0 -8 4 -9 13 0
8 6 16 8 20 5 3 -3 3 3 0 15 -6 24 -13 28 -13 6z"/>
<path d="M3683 1791 c-8 -13 -27 -21 -55 -24 l-43 -4 40 -1 c41 -1 80 18 74
37 -2 6 -10 2 -16 -8z"/>
<path d="M3230 1785 c-6 -8 -10 -19 -8 -24 1 -5 11 2 21 15 19 26 8 34 -13 9z"/>
<path d="M1380 1780 c-11 -7 -5 -8 20 -4 43 8 51 14 19 14 -13 0 -31 -5 -39
-10z"/>
<path d="M1464 1735 c-9 -14 -15 -27 -13 -30 3 -2 12 10 21 26 21 36 15 39 -8
4z"/>
<path d="M1769 1725 c17 -54 21 -61 16 -25 -3 19 -10 39 -15 44 -7 7 -7 1 -1
-19z"/>
<path d="M1906 1742 c6 -4 21 -23 33 -42 11 -19 21 -30 21 -25 0 18 -40 75
-52 75 -9 0 -10 -2 -2 -8z"/>
<path d="M3530 1743 c0 -6 9 -21 21 -34 l20 -24 -17 30 c-24 39 -24 40 -24 28z"/>
<path d="M3440 1730 c-11 -7 -11 -10 -2 -10 7 0 17 -10 22 -22 6 -17 9 -18 9
-6 1 9 -4 20 -9 23 -6 4 -8 11 -5 16 8 11 4 11 -15 -1z"/>
<path d="M3497 1695 c2 -22 5 -48 6 -57 1 -9 6 -14 12 -10 5 3 22 5 37 3 37
-3 98 36 98 64 -1 6 -5 2 -11 -8 -11 -19 -60 -47 -84 -47 -20 0 -48 34 -56 68
-4 16 -5 10 -2 -13z"/>
<path d="M1372 1714 c10 -10 20 -16 22 -13 3 3 -5 11 -17 18 -21 13 -21 12 -5
-5z"/>
<path d="M1560 1723 c0 -5 9 -18 19 -27 23 -20 17 -50 -13 -72 l-21 -16 22 5
c15 3 23 0 26 -12 2 -9 7 5 11 32 5 26 15 51 25 57 9 5 11 10 6 10 -6 0 -16
-5 -22 -11 -7 -7 -17 -3 -32 17 -11 15 -21 22 -21 17z"/>
<path d="M3138 1719 c-29 -16 -16 -69 16 -69 5 0 1 6 -9 14 -22 16 -14 43 17
56 13 5 16 9 8 9 -8 0 -23 -4 -32 -10z"/>
<path d="M3205 1723 c11 -3 29 -12 40 -22 20 -16 20 -16 1 7 -11 12 -29 21
-40 21 -20 -1 -20 -2 -1 -6z"/>
<path d="M3348 1682 l-17 -37 19 24 c11 13 20 29 20 37 0 21 -3 17 -22 -24z"/>
<path d="M1878 1688 c-13 -13 -17 -18 -8 -12 8 6 24 16 35 22 11 6 15 12 8 12
-7 0 -22 -10 -35 -22z"/>
<path d="M1681 1697 c2 -2 18 -11 34 -21 l30 -17 -24 20 c-13 12 -28 21 -34
21 -6 0 -8 -1 -6 -3z"/>
<path d="M1446 1665 c3 -16 10 -36 16 -42 15 -18 65 -16 72 3 10 25 7 29 -7
10 -21 -29 -58 -17 -74 24 -12 32 -13 32 -7 5z"/>
<path d="M3475 1649 c5 -21 1 -31 -21 -48 -15 -11 -22 -21 -15 -21 15 0 51 37
51 53 0 6 -5 19 -10 27 -8 11 -9 8 -5 -11z"/>
<path d="M3415 1650 c-28 -7 -28 -8 -5 -9 14 0 32 4 40 9 17 11 8 11 -35 0z"/>
<path d="M1760 1641 c0 -6 4 -13 10 -16 6 -3 7 1 4 9 -7 18 -14 21 -14 7z"/>
<path d="M1658 1633 c7 -3 16 -2 19 1 4 3 -2 6 -13 5 -11 0 -14 -3 -6 -6z"/>
<path d="M3305 1630 c-3 -6 1 -7 9 -4 18 7 21 14 7 14 -6 0 -13 -4 -16 -10z"/>
<path d="M3082 1610 c-17 -10 -34 -25 -39 -33 -4 -9 -56 -27 -123 -42 -135
-32 -290 -85 -371 -126 l-58 -29 -57 26 c-63 28 -250 78 -332 89 -32 4 -57 14
-65 24 -15 21 -56 45 -65 37 -3 -3 0 -6 6 -6 21 0 52 -39 52 -65 0 -54 -71
-85 -112 -48 -10 9 -18 13 -18 10 0 -3 10 -15 22 -27 30 -28 73 -26 105 6 l26
27 106 -13 c108 -12 288 -53 303 -68 5 -5 -12 -23 -36 -41 -25 -17 -49 -37
-53 -44 -4 -7 11 2 32 19 43 33 78 54 93 54 5 0 38 -18 73 -40 38 -24 52 -30
34 -15 -16 14 -42 33 -57 43 -16 9 -28 19 -28 23 0 23 273 101 420 121 84 11
89 10 115 -10 29 -23 70 -28 94 -13 10 7 24 3 43 -10 16 -12 38 -18 51 -16 19
4 18 4 -5 6 -16 0 -28 3 -28 6 0 2 11 21 25 41 14 20 25 42 25 48 -1 6 -10 -6
-20 -26 -11 -20 -24 -39 -30 -43 -17 -11 -49 14 -53 42 -4 26 -4 26 -6 -4 -1
-30 -4 -33 -31 -33 -34 0 -70 30 -70 59 0 21 36 71 51 71 5 0 22 -9 38 -21 18
-13 38 -19 57 -16 l29 4 -31 2 c-17 0 -43 12 -57 25 -25 23 -26 23 -55 6z"/>
<path d="M1848 1613 c6 -2 18 -2 25 0 6 3 1 5 -13 5 -14 0 -19 -2 -12 -5z"/>
<path d="M3257 1609 c7 -7 15 -10 18 -7 3 3 -2 9 -12 12 -14 6 -15 5 -6 -5z"/>
<path d="M1908 1595 c12 -9 26 -30 31 -48 6 -23 9 -26 10 -11 1 24 -34 74 -52
74 -6 0 -2 -7 11 -15z"/>
<path d="M3520 1596 c0 -2 8 -10 18 -17 15 -13 16 -12 3 4 -13 16 -21 21 -21
13z"/>
<path d="M1676 1559 c-8 -12 -19 -18 -26 -14 -6 4 -27 -5 -46 -20 -52 -40 -88
-19 -43 26 12 12 15 19 8 17 -8 -3 -21 -17 -29 -32 -14 -26 -14 -28 9 -47 13
-10 28 -19 35 -19 8 0 7 3 -1 8 -8 5 -2 16 22 35 l34 27 11 -40 c14 -52 51
-73 78 -46 16 17 16 18 -5 7 -51 -26 -79 26 -44 84 22 38 21 47 -3 14z"/>
<path d="M3320 1554 c0 -12 37 -54 47 -54 4 0 -4 12 -18 28 -13 15 -25 29 -26
31 -2 2 -3 0 -3 -5z"/>
<path d="M3440 1516 c0 -17 -11 -30 -37 -46 -45 -26 -80 -19 -100 20 -8 15
-13 19 -13 9 0 -21 42 -59 66 -59 34 0 94 48 94 75 0 14 -2 25 -5 25 -3 0 -5
-11 -5 -24z"/>
<path d="M3507 1529 c7 -7 15 -10 18 -7 3 3 -2 9 -12 12 -14 6 -15 5 -6 -5z"/>
<path d="M1900 1512 c9 -18 8 -27 -1 -38 -18 -22 -48 -17 -80 15 -31 32 -38
29 -14 -6 18 -26 67 -38 94 -23 25 13 26 29 5 56 -14 18 -15 18 -4 -4z"/>
<path d="M1787 1456 c-3 -8 -18 -16 -34 -19 l-28 -4 26 -2 c25 -1 58 23 47 35
-3 3 -8 -2 -11 -10z"/>
<path d="M2637 1262 c-20 -22 -22 -55 -4 -70 9 -8 12 -3 12 21 0 26 5 33 23
35 13 2 30 -2 38 -8 21 -18 17 4 -4 23 -24 22 -45 21 -65 -1z"/>
<path d="M2286 1254 c-9 -8 -16 -23 -16 -32 0 -13 3 -12 16 6 8 12 21 22 29
22 23 0 44 -28 38 -52 -4 -19 -3 -20 6 -8 14 20 14 53 -1 68 -17 17 -54 15
-72 -4z"/>
<path d="M2683 1187 c-27 -15 -33 -28 -31 -67 l1 -35 4 33 c5 38 41 67 73 57
11 -4 39 -31 61 -61 23 -30 43 -54 46 -54 5 0 -28 57 -59 101 -19 29 -66 41
-95 26z"/>
<path d="M2214 1169 l-19 -21 32 18 c26 15 35 16 57 6 37 -17 42 -37 23 -106
-9 -33 -15 -62 -13 -63 9 -9 47 118 41 136 -16 53 -85 70 -121 30z"/>
<path d="M2175 1064 c-29 -38 -44 -40 -25 -2 12 22 12 22 -6 5 -15 -13 -16
-21 -8 -35 13 -20 59 -48 95 -57 23 -6 27 -2 37 31 15 49 8 56 -9 10 -14 -38
-17 -40 -37 -27 -12 7 -11 14 2 39 23 44 19 53 -5 15 -21 -33 -49 -44 -49 -20
0 6 9 27 20 45 26 42 19 41 -15 -4z"/>
<path d="M2792 1062 c20 -37 21 -44 8 -52 -11 -7 -20 -1 -37 28 -26 43 -31 36
-7 -10 13 -25 14 -32 2 -39 -20 -13 -23 -11 -37 27 -16 44 -24 40 -11 -6 10
-37 5 -53 -10 -30 -8 13 -10 12 -10 -2 0 -30 69 -14 123 27 l26 20 -35 40 -34
40 22 -43z"/>
<path d="M1772 838 c11 -16 28 -24 59 -28 l44 -5 3 -62 c2 -49 0 -63 -11 -63
-8 0 -20 -6 -26 -14 -23 -28 38 -106 82 -106 21 0 27 32 27 148 l0 103 43 -3
42 -3 5 -178 5 -178 33 -20 32 -21 0 201 0 201 200 0 200 0 0 -45 0 -44 -100
-3 -100 -3 31 -38 c55 -67 40 -140 -24 -123 -29 7 -81 86 -93 139 -6 29 -21
32 -37 6 -12 -20 41 -134 80 -174 79 -79 184 -45 170 56 -3 22 -13 49 -23 60
-17 19 -16 19 39 19 l57 0 0 -103 0 -103 40 -23 40 -22 0 200 0 201 90 0 90 0
0 -74 c0 -80 -7 -94 -39 -74 -17 11 -23 10 -38 -4 -15 -16 -12 -23 58 -114 41
-53 81 -105 90 -116 13 -17 19 -18 37 -9 12 7 22 14 22 17 0 3 -27 36 -60 72
l-61 66 31 24 c30 23 30 25 30 118 l0 94 65 0 65 0 0 -178 0 -178 29 -17 c16
-9 32 -17 35 -17 3 0 7 87 8 193 l3 192 47 3 c46 3 47 4 36 28 l-11 24 -680 0
-679 0 14 -22z"/>
<path d="M2232 421 l-21 -29 25 -23 24 -22 25 23 c32 30 31 34 -3 59 l-29 20
-21 -28z"/>
</g>
</svg>
